<svg version="1.2" xmlns="http://www.w3.org/2000/svg" viewBox="0 0 600 600" width="107" height="107">
	<style>
		.s0 { fill: #00aeef } 
	</style>
	<g>
		<g>
			<path class="s0" d="m328.21 0c-122.53 0-222.4 98.85-224.05 221l-56.43 162.27h56.42v120.92h109.47v95.81h257.28v-203.2c23.72-19.64 43.43-44.24 57.3-71.63 15.97-31.52 24.07-65.54 24.07-101.11 0-123.55-100.51-224.06-224.06-224.06zm114.06 374.02l-7.02 5.36v184.97h-185.99v-95.81h-109.47v-120.92h-41.92l41.92-120.55v-3.01c0-103.9 84.52-188.41 188.42-188.41 103.89 0 188.41 84.51 188.41 188.41 0 59.3-27.09 113.96-74.35 149.96z"/>
		</g>
	</g>
	<g>
		<g>
			<path class="s0" d="m328.21 96.55c-66.57 0-120.72 54.15-120.72 120.72 0 31.87 12.31 61.94 34.66 84.66l1.62 1.65c9.12 9.62 15.43 21.39 18.38 34.25v30.16c0 30.26 24.61 54.87 54.88 54.87h22.36c30.26 0 54.88-24.61 54.88-54.87v-30.16c2.94-12.84 9.23-24.6 18.33-34.21l1.66-1.69c22.36-22.72 34.67-52.79 34.67-84.66 0-66.57-54.16-120.72-120.72-120.72zm11.18 290.68l-22.36-0.01c-10.61 0-19.24-8.63-19.24-19.23v-14.3h60.83v14.3c0 10.6-8.62 19.23-19.23 19.23zm49.97-110.81l-0.39 0.38c-11.76 11.74-20.61 25.8-26.04 41.26h-16.9v-56.66c17.44-7.07 29.77-24.18 29.77-44.12 0-26.25-21.35-47.59-47.6-47.59-26.24 0-47.59 21.34-47.59 47.59 0 19.94 12.33 37.05 29.77 44.12v56.66h-16.9c-5.43-15.46-14.28-29.52-26.04-41.26l-0.39-0.37c-15.43-15.95-23.92-36.92-23.92-59.15 0-46.91 38.17-85.08 85.07-85.08 46.91 0 85.08 38.17 85.08 85.08 0 22.22-8.49 43.19-23.92 59.13zm-73.1-59.13c0-6.59 5.36-11.95 11.95-11.95 6.58 0 11.95 5.36 11.95 11.95 0 6.59-5.37 11.95-11.95 11.95-6.59 0-11.95-5.36-11.95-11.95z"/>
		</g>
	</g>
</svg>