<svg version="1.2" xmlns="http://www.w3.org/2000/svg" viewBox="0 0 800 800" width="54" height="54">
	<style>
		.s0 { fill: #000000 } 
	</style>
	<g>
		<g>
			<path class="s0" d="m437.61 0c-163.37 0-296.53 131.8-298.73 294.66l-75.24 216.36h75.22v161.23h145.96v127.75h343.04v-270.93c31.63-26.19 57.91-58.99 76.41-95.51 21.29-42.03 32.09-87.39 32.09-134.81 0-164.73-134.02-298.75-298.75-298.75zm152.08 498.7l-9.36 7.14v246.63h-247.99v-127.75h-145.96v-161.22h-55.89l55.89-160.74v-4.01c0-138.53 112.7-251.22 251.23-251.22 138.52 0 251.22 112.69 251.22 251.22 0 79.07-36.13 151.95-99.14 199.95z"/>
		</g>
	</g>
	<g>
		<g>
			<path class="s0" d="m437.61 128.73c-88.76 0-160.96 72.21-160.96 160.96 0 42.5 16.41 82.59 46.21 112.88l2.17 2.21c12.16 12.82 20.57 28.52 24.5 45.66v40.21c0 40.35 32.82 73.17 73.17 73.17h29.82c40.34 0 73.17-32.82 73.17-73.17v-40.21c3.92-17.12 12.31-32.8 24.44-45.61l2.22-2.26c29.81-30.29 46.22-70.38 46.22-112.88 0-88.75-72.21-160.96-160.96-160.96zm14.91 387.57h-29.82c-14.14 0-25.65-11.51-25.65-25.65v-19.06h81.11v19.06c0 14.14-11.5 25.65-25.64 25.65zm66.63-147.76l-0.52 0.52c-15.69 15.64-27.49 34.39-34.73 55.01h-22.53v-75.55c23.25-9.43 39.69-32.24 39.69-58.82 0-35-28.46-63.46-63.46-63.46-34.99 0-63.45 28.46-63.45 63.46 0 26.58 16.44 49.39 39.69 58.82v75.55h-22.53c-7.24-20.62-19.04-39.37-34.73-55.01l-0.51-0.5c-20.58-21.26-31.9-49.23-31.9-78.86 0-62.55 50.89-113.44 113.43-113.44 62.55 0 113.44 50.89 113.44 113.44 0 29.62-11.32 57.58-31.89 78.84zm-97.47-78.85c0-8.78 7.14-15.93 15.93-15.93 8.78 0 15.93 7.15 15.93 15.93 0 8.79-7.15 15.93-15.93 15.93-8.79 0-15.93-7.14-15.93-15.93z"/>
		</g>
	</g>
</svg>